<svg width="106" height="134" viewBox="0 0 106 134" fill="none" xmlns="http://www.w3.org/2000/svg">
<circle cx="104" cy="132" r="1.66667" transform="rotate(180 104 132)" fill="#8E9C63"/>
<circle cx="101.999" cy="117.333" r="1.66667" transform="rotate(180 101.999 117.333)" fill="#8E9C63"/>
<circle cx="101.999" cy="102.667" r="1.66667" transform="rotate(180 101.999 102.667)" fill="#8E9C63"/>
<circle cx="101.999" cy="88" r="1.66667" transform="rotate(180 101.999 88)" fill="#8E9C63"/>
<circle cx="101.999" cy="73.3333" r="1.66667" transform="rotate(180 101.999 73.3333)" fill="#8E9C63"/>
<circle cx="101.999" cy="45" r="1.66667" transform="rotate(180 101.999 45)" fill="#8E9C63"/>
<circle cx="101.999" cy="16" r="1.66667" transform="rotate(180 101.999 16)" fill="#8E9C63"/>
<circle cx="101.999" cy="59" r="1.66667" transform="rotate(180 101.999 59)" fill="#8E9C63"/>
<circle cx="101.999" cy="30.6666" r="1.66667" transform="rotate(180 101.999 30.6666)" fill="#8E9C63"/>
<circle cx="101.999" cy="1.66665" r="1.66667" transform="rotate(180 101.999 1.66665)" fill="#8E9C63"/>
<circle cx="87.6663" cy="132" r="1.66667" transform="rotate(180 87.6663 132)" fill="#8E9C63"/>
<circle cx="87.6663" cy="117.333" r="1.66667" transform="rotate(180 87.6663 117.333)" fill="#8E9C63"/>
<circle cx="87.6663" cy="102.667" r="1.66667" transform="rotate(180 87.6663 102.667)" fill="#8E9C63"/>
<circle cx="87.6663" cy="88" r="1.66667" transform="rotate(180 87.6663 88)" fill="#8E9C63"/>
<circle cx="87.6663" cy="73.3333" r="1.66667" transform="rotate(180 87.6663 73.3333)" fill="#8E9C63"/>
<circle cx="87.6663" cy="45" r="1.66667" transform="rotate(180 87.6663 45)" fill="#8E9C63"/>
<circle cx="87.6663" cy="16" r="1.66667" transform="rotate(180 87.6663 16)" fill="#8E9C63"/>
<circle cx="87.6663" cy="59" r="1.66667" transform="rotate(180 87.6663 59)" fill="#8E9C63"/>
<circle cx="87.6663" cy="30.6666" r="1.66667" transform="rotate(180 87.6663 30.6666)" fill="#8E9C63"/>
<circle cx="87.6663" cy="1.66665" r="1.66667" transform="rotate(180 87.6663 1.66665)" fill="#8E9C63"/>
<circle cx="73.3333" cy="132" r="1.66667" transform="rotate(180 73.3333 132)" fill="#8E9C63"/>
<circle cx="30.3333" cy="132" r="1.66667" transform="rotate(180 30.3333 132)" fill="#8E9C63"/>
<circle cx="73.3333" cy="117.333" r="1.66667" transform="rotate(180 73.3333 117.333)" fill="#8E9C63"/>
<circle cx="30.3333" cy="117.333" r="1.66667" transform="rotate(180 30.3333 117.333)" fill="#8E9C63"/>
<circle cx="73.3333" cy="102.667" r="1.66667" transform="rotate(180 73.3333 102.667)" fill="#8E9C63"/>
<circle cx="30.3333" cy="102.667" r="1.66667" transform="rotate(180 30.3333 102.667)" fill="#8E9C63"/>
<circle cx="73.3333" cy="88" r="1.66667" transform="rotate(180 73.3333 88)" fill="#8E9C63"/>
<circle cx="30.3333" cy="88" r="1.66667" transform="rotate(180 30.3333 88)" fill="#8E9C63"/>
<circle cx="73.3324" cy="73.3333" r="1.66667" transform="rotate(180 73.3324 73.3333)" fill="#8E9C63"/>
<circle cx="30.3333" cy="73.3333" r="1.66667" transform="rotate(180 30.3333 73.3333)" fill="#8E9C63"/>
<circle cx="73.3324" cy="45" r="1.66667" transform="rotate(180 73.3324 45)" fill="#8E9C63"/>
<circle cx="30.3333" cy="45" r="1.66667" transform="rotate(180 30.3333 45)" fill="#8E9C63"/>
<circle cx="73.3324" cy="16" r="1.66667" transform="rotate(180 73.3324 16)" fill="#8E9C63"/>
<circle cx="30.3333" cy="16" r="1.66667" transform="rotate(180 30.3333 16)" fill="#8E9C63"/>
<circle cx="73.3324" cy="59" r="1.66667" transform="rotate(180 73.3324 59)" fill="#8E9C63"/>
<circle cx="30.3333" cy="59" r="1.66667" transform="rotate(180 30.3333 59)" fill="#8E9C63"/>
<circle cx="73.3324" cy="30.6666" r="1.66667" transform="rotate(180 73.3324 30.6666)" fill="#8E9C63"/>
<circle cx="30.3333" cy="30.6666" r="1.66667" transform="rotate(180 30.3333 30.6666)" fill="#8E9C63"/>
<circle cx="73.3324" cy="1.66665" r="1.66667" transform="rotate(180 73.3324 1.66665)" fill="#8E9C63"/>
<circle cx="30.3333" cy="1.66665" r="1.66667" transform="rotate(180 30.3333 1.66665)" fill="#8E9C63"/>
<circle cx="58.9993" cy="132" r="1.66667" transform="rotate(180 58.9993 132)" fill="#8E9C63"/>
<circle cx="16.0003" cy="132" r="1.66667" transform="rotate(180 16.0003 132)" fill="#8E9C63"/>
<circle cx="58.9993" cy="117.333" r="1.66667" transform="rotate(180 58.9993 117.333)" fill="#8E9C63"/>
<circle cx="16.0003" cy="117.333" r="1.66667" transform="rotate(180 16.0003 117.333)" fill="#8E9C63"/>
<circle cx="58.9993" cy="102.667" r="1.66667" transform="rotate(180 58.9993 102.667)" fill="#8E9C63"/>
<circle cx="16.0003" cy="102.667" r="1.66667" transform="rotate(180 16.0003 102.667)" fill="#8E9C63"/>
<circle cx="58.9993" cy="88" r="1.66667" transform="rotate(180 58.9993 88)" fill="#8E9C63"/>
<circle cx="16.0003" cy="88" r="1.66667" transform="rotate(180 16.0003 88)" fill="#8E9C63"/>
<circle cx="58.9993" cy="73.3333" r="1.66667" transform="rotate(180 58.9993 73.3333)" fill="#8E9C63"/>
<circle cx="16.0003" cy="73.3333" r="1.66667" transform="rotate(180 16.0003 73.3333)" fill="#8E9C63"/>
<circle cx="58.9993" cy="45" r="1.66667" transform="rotate(180 58.9993 45)" fill="#8E9C63"/>
<circle cx="16.0003" cy="45" r="1.66667" transform="rotate(180 16.0003 45)" fill="#8E9C63"/>
<circle cx="58.9993" cy="16" r="1.66667" transform="rotate(180 58.9993 16)" fill="#8E9C63"/>
<circle cx="16.0003" cy="16" r="1.66667" transform="rotate(180 16.0003 16)" fill="#8E9C63"/>
<circle cx="58.9993" cy="59" r="1.66667" transform="rotate(180 58.9993 59)" fill="#8E9C63"/>
<circle cx="16.0003" cy="59" r="1.66667" transform="rotate(180 16.0003 59)" fill="#8E9C63"/>
<circle cx="58.9993" cy="30.6666" r="1.66667" transform="rotate(180 58.9993 30.6666)" fill="#8E9C63"/>
<circle cx="16.0003" cy="30.6666" r="1.66667" transform="rotate(180 16.0003 30.6666)" fill="#8E9C63"/>
<circle cx="58.9993" cy="1.66665" r="1.66667" transform="rotate(180 58.9993 1.66665)" fill="#8E9C63"/>
<circle cx="16.0003" cy="1.66665" r="1.66667" transform="rotate(180 16.0003 1.66665)" fill="#8E9C63"/>
<circle cx="44.6663" cy="132" r="1.66667" transform="rotate(180 44.6663 132)" fill="#8E9C63"/>
<circle cx="1.66732" cy="132" r="1.66667" transform="rotate(180 1.66732 132)" fill="#8E9C63"/>
<circle cx="44.6663" cy="117.333" r="1.66667" transform="rotate(180 44.6663 117.333)" fill="#8E9C63"/>
<circle cx="1.66634" cy="117.333" r="1.66667" transform="rotate(180 1.66634 117.333)" fill="#8E9C63"/>
<circle cx="44.6663" cy="102.667" r="1.66667" transform="rotate(180 44.6663 102.667)" fill="#8E9C63"/>
<circle cx="1.66634" cy="102.667" r="1.66667" transform="rotate(180 1.66634 102.667)" fill="#8E9C63"/>
<circle cx="44.6663" cy="88" r="1.66667" transform="rotate(180 44.6663 88)" fill="#8E9C63"/>
<circle cx="1.66634" cy="88" r="1.66667" transform="rotate(180 1.66634 88)" fill="#8E9C63"/>
<circle cx="44.6663" cy="73.3333" r="1.66667" transform="rotate(180 44.6663 73.3333)" fill="#8E9C63"/>
<circle cx="1.66732" cy="73.3333" r="1.66667" transform="rotate(180 1.66732 73.3333)" fill="#8E9C63"/>
<circle cx="44.6663" cy="45" r="1.66667" transform="rotate(180 44.6663 45)" fill="#8E9C63"/>
<circle cx="1.66732" cy="45" r="1.66667" transform="rotate(180 1.66732 45)" fill="#8E9C63"/>
<circle cx="44.6663" cy="16" r="1.66667" transform="rotate(180 44.6663 16)" fill="#8E9C63"/>
<circle cx="1.66732" cy="16" r="1.66667" transform="rotate(180 1.66732 16)" fill="#8E9C63"/>
<circle cx="44.6663" cy="59" r="1.66667" transform="rotate(180 44.6663 59)" fill="#8E9C63"/>
<circle cx="1.66732" cy="59" r="1.66667" transform="rotate(180 1.66732 59)" fill="#8E9C63"/>
<circle cx="44.6663" cy="30.6666" r="1.66667" transform="rotate(180 44.6663 30.6666)" fill="#8E9C63"/>
<circle cx="1.66732" cy="30.6666" r="1.66667" transform="rotate(180 1.66732 30.6666)" fill="#8E9C63"/>
<circle cx="44.6663" cy="1.66665" r="1.66667" transform="rotate(180 44.6663 1.66665)" fill="#8E9C63"/>
<circle cx="1.66732" cy="1.66665" r="1.66667" transform="rotate(180 1.66732 1.66665)" fill="#8E9C63"/>
</svg>
