<svg width="454" height="491" viewBox="0 0 454 491" fill="none" xmlns="http://www.w3.org/2000/svg">
<g clip-path="url(#clip0_72_1339)">
<mask id="path-1-inside-1_72_1339" fill="white">
<path d="M227.413 390.902C200.112 415.468 164.917 430.855 133.192 432.143L132.641 432.163L131.68 431.555L131.37 430.941C129.953 427.199 128.746 423.321 127.786 419.431L127.544 418.455L128.264 417.753C129.707 416.351 131.581 415.559 133.687 415.463C160.291 414.216 192.459 399.934 215.639 379.074C230.878 363.517 245.265 339.597 239.703 319.331C237.612 311.709 234.08 307.159 229.208 305.812C217.548 302.599 200.319 317.464 193.447 324.009C191.099 326.245 188.794 328.463 186.518 330.662C167.996 348.525 150.5 365.397 125.65 373.012L123.374 373.712V356.13L124.517 355.706C145.173 347.995 160.858 332.598 177.464 316.296L178.7 315.083C190.464 303.539 208.22 286.11 228.617 288.285C248.758 290.449 257.482 309.515 257.194 327.452C256.748 355.22 240.753 377.28 227.413 390.9V390.902ZM219.144 460.415C209.201 462.059 199.597 463.995 191.38 469.581C186.25 473.07 181.624 477.5 177.39 481.77L175.762 483.409L177.786 484.533C181.929 486.835 186.309 488.875 190.801 490.6L191.841 490.998L192.649 490.229C194.494 488.477 196.705 486.433 199.092 484.573C205.681 479.439 214.208 478.035 222.457 476.68L223.233 476.55C227.563 475.834 230.08 472.3 229.358 467.949C228.622 463.539 224.61 459.529 219.149 460.412L219.144 460.415ZM154.185 306.747C166.264 294.663 176.688 284.817 188.301 276.039C202.989 264.934 223.671 263.562 243.61 272.365C248.694 274.608 253.625 271.697 255.452 267.584C257.231 263.589 255.686 259.569 251.696 257.805C223.378 245.299 196.218 248.487 173.158 267.01C163.629 274.664 154.904 283.141 146.463 291.34C142.269 295.414 138.062 299.5 133.729 303.527C132.165 304.98 129.995 306.384 127.897 307.746C126.53 308.629 125.205 309.488 124.079 310.335L123.377 310.862V330.12L126.094 328.367C135.138 322.527 145.547 315.393 154.185 306.749V306.747ZM226.208 333.774C227.132 330.974 226.637 328.311 224.812 326.279C222.802 324.043 219.368 322.981 216.282 323.611C213.344 324.225 211.107 326.254 210.139 329.182C200.252 359.144 158.247 380.495 124.998 383.096L123.374 383.224V394.746L123.451 395.531L123.483 395.565C122.51 397.182 123.175 398.343 123.939 399.048L124.52 399.583L125.308 399.507C165.545 395.563 214.287 369.898 226.208 333.776V333.774ZM269.472 388.493C266.77 383.44 261.625 383.206 257.982 385.14C254.041 387.234 251.322 392.211 254.048 397.317C268.174 423.743 307.091 429.392 323.167 430.597L324.505 430.696L324.956 429.439C326.631 424.786 327.97 420.006 328.943 415.227L329.347 413.235L327.31 413.129C313.49 412.4 280.187 408.545 269.47 388.493H269.472ZM301.064 361.608C295.921 352.749 296.308 341.71 296.679 331.037C296.768 328.534 296.852 326.075 296.864 323.692C296.938 308.276 295.145 290.795 281.288 278.049C279.022 275.963 276.095 275.271 273.258 276.154C270.253 277.087 267.785 279.688 267.118 282.633C266.507 285.32 267.376 287.907 269.563 289.919C281.103 300.538 280.77 315.734 280.418 331.82C280.199 341.835 279.972 352.192 282.913 361.282C288.305 377.938 302.918 389.702 327.599 397.254L328.697 397.335L331.003 395.627V380.917L329.783 380.527C315.118 375.817 305.724 369.63 301.066 361.608H301.064ZM277.312 474.501C271.421 469.546 265.482 465.104 257.664 465.104H257.541C252.174 465.136 249.393 469.367 249.418 473.534C249.442 477.647 252.307 481.763 257.561 481.76C260.893 481.657 264.972 485.581 267.79 488.293L268.642 489.115L269.726 488.637C274.004 486.74 278.135 484.568 282.012 482.182L283.736 481.12L282.438 479.569C281.012 477.868 279.288 476.163 277.31 474.501H277.312ZM331 302.386V344.802L327.808 340.331C323.382 334.13 319.965 326.24 317.369 316.215C308.936 283.668 297.955 258.266 271.768 240.081C241.541 219.092 200.287 222.223 169.116 247.871C164.71 251.493 160.166 255.579 155.769 259.528C146.178 268.144 136.259 277.05 126.022 282.969L123.379 284.496V267.069L123.914 266.551C127.123 263.457 133.744 257.498 139.589 252.241C143.737 248.509 147.599 245.036 149.84 242.948C161.215 232.346 172.011 224.672 182.838 219.484C185.838 218.046 188.969 216.738 192.146 215.594C208.587 209.685 219.632 194.401 219.632 177.573V150.924C218.348 151.766 217.223 152.456 216.713 152.664C210.612 155.177 203.962 155.894 197.491 154.748C186.274 152.757 177.417 145.753 172.4 134.953C155.163 139.145 134.493 132.683 127.18 111.867C120.68 93.3561 129.833 73.6645 148.513 65.4899C147.015 54.5864 150.284 44.0485 157.594 36.3868C164.887 28.7472 175.299 24.9974 186.257 25.9741C194.917 9.75502 210.678 0.0711687 228.659 0H228.856C246.869 0 262.726 9.64703 271.517 25.898H271.792C282.47 25.898 292.266 30.1289 298.84 37.6286C305.305 45.0031 308.17 55.0011 306.798 65.2494C325.936 73.2056 335.338 93.0003 328.714 111.865C321.414 132.651 300.763 139.115 283.541 134.963C278.406 145.935 268.987 153.16 257.492 154.87C250.447 155.921 243.361 154.794 237.011 151.629C236.841 151.543 236.531 151.354 236.139 151.098V178.53C236.139 194.887 246.361 209.611 262.184 216.044C286.155 225.877 307.655 246.329 319.961 270.865C324.367 279.649 327.754 289.237 330.946 301.956L331 302.381V302.386ZM160.348 78.8352C151.193 80.9261 145.17 86.3988 143.392 94.2469C141.584 102.22 144.722 111.256 151.02 116.223C157.094 121.011 165.04 121.411 173.385 117.352C174.673 116.726 176.077 116.412 177.469 116.412C178.779 116.412 180.075 116.69 181.252 117.247C183.392 118.258 184.87 120.086 185.415 122.395C187.208 129.996 193.028 138.875 203.538 138.887H203.563C208.735 138.887 211.045 136.614 213.972 133.741C215.691 132.05 217.642 130.136 220.358 128.567L221.479 127.897C223.349 126.761 224.826 125.861 227.952 125.861C231.309 125.861 232.605 126.702 234.44 128.072C234.915 128.425 235.45 128.828 236.129 129.269C238.267 130.653 240.063 132.168 241.647 133.505C246.238 137.385 249.27 139.952 257.014 137.517C264.514 135.162 268.541 130.639 270.487 122.395C271.031 120.089 272.509 118.258 274.65 117.247C277.078 116.101 280.019 116.137 282.514 117.352C291.076 121.509 299.103 121.161 305.106 116.363C311.327 111.394 314.315 102.284 312.377 94.2077C311.258 89.5547 307.515 81.3605 294.992 78.7518C292.527 78.2389 290.63 76.818 289.652 74.7516C288.928 73.6228 288.155 71.446 289.15 68.5133C291.711 60.9474 290.874 54.0514 286.788 49.0966C282.495 43.889 275.182 41.5429 266.746 42.6349C262.913 43.1478 259.861 39.9477 258.615 36.7844C253.548 23.9323 242.174 16.0056 228.735 16.1406C215.245 16.2608 203.841 24.4305 198.976 37.4593C197.316 41.9061 193.159 44.2105 188.88 43.062C181.343 41.0496 174.355 42.7233 169.722 47.6634C164.804 52.9053 163.473 60.729 166.163 68.5968C166.833 70.5576 166.574 72.835 165.449 74.84C164.296 76.899 162.439 78.3542 160.353 78.8303L160.348 78.8352ZM256.521 428.273C254.007 426.781 251.482 425.284 248.942 423.802C248.154 423.343 247.319 423.022 246.396 422.825C233.57 415.888 219.095 416.045 202.146 423.301C197.76 425.179 193.476 427.088 189.24 428.975C173.442 436.016 158.52 442.664 141.439 446.336L138.995 446.858L140.318 448.974C142.924 453.143 145.857 457.161 149.032 460.913L149.722 461.728L150.764 461.494C162.227 458.932 172.754 455.543 182.944 451.128C186.858 449.43 190.782 447.376 194.939 445.202C209.834 437.398 225.243 429.331 239.994 438.343C240.799 438.836 241.642 439.177 242.566 439.383L246.26 441.55C264.177 452.081 281.1 462.027 300.815 466.167L301.773 466.368L302.448 465.664C306.007 461.951 309.313 457.946 312.273 453.752L313.978 451.335L311.032 450.998C290.987 448.728 274.246 438.792 256.524 428.268L256.521 428.273Z"/>
</mask>
<g filter="url(#filter0_i_72_1339)">
<path d="M227.413 390.902C200.112 415.468 164.917 430.855 133.192 432.143L132.641 432.163L131.68 431.555L131.37 430.941C129.953 427.199 128.746 423.321 127.786 419.431L127.544 418.455L128.264 417.753C129.707 416.351 131.581 415.559 133.687 415.463C160.291 414.216 192.459 399.934 215.639 379.074C230.878 363.517 245.265 339.597 239.703 319.331C237.612 311.709 234.08 307.159 229.208 305.812C217.548 302.599 200.319 317.464 193.447 324.009C191.099 326.245 188.794 328.463 186.518 330.662C167.996 348.525 150.5 365.397 125.65 373.012L123.374 373.712V356.13L124.517 355.706C145.173 347.995 160.858 332.598 177.464 316.296L178.7 315.083C190.464 303.539 208.22 286.11 228.617 288.285C248.758 290.449 257.482 309.515 257.194 327.452C256.748 355.22 240.753 377.28 227.413 390.9V390.902ZM219.144 460.415C209.201 462.059 199.597 463.995 191.38 469.581C186.25 473.07 181.624 477.5 177.39 481.77L175.762 483.409L177.786 484.533C181.929 486.835 186.309 488.875 190.801 490.6L191.841 490.998L192.649 490.229C194.494 488.477 196.705 486.433 199.092 484.573C205.681 479.439 214.208 478.035 222.457 476.68L223.233 476.55C227.563 475.834 230.08 472.3 229.358 467.949C228.622 463.539 224.61 459.529 219.149 460.412L219.144 460.415ZM154.185 306.747C166.264 294.663 176.688 284.817 188.301 276.039C202.989 264.934 223.671 263.562 243.61 272.365C248.694 274.608 253.625 271.697 255.452 267.584C257.231 263.589 255.686 259.569 251.696 257.805C223.378 245.299 196.218 248.487 173.158 267.01C163.629 274.664 154.904 283.141 146.463 291.34C142.269 295.414 138.062 299.5 133.729 303.527C132.165 304.98 129.995 306.384 127.897 307.746C126.53 308.629 125.205 309.488 124.079 310.335L123.377 310.862V330.12L126.094 328.367C135.138 322.527 145.547 315.393 154.185 306.749V306.747ZM226.208 333.774C227.132 330.974 226.637 328.311 224.812 326.279C222.802 324.043 219.368 322.981 216.282 323.611C213.344 324.225 211.107 326.254 210.139 329.182C200.252 359.144 158.247 380.495 124.998 383.096L123.374 383.224V394.746L123.451 395.531L123.483 395.565C122.51 397.182 123.175 398.343 123.939 399.048L124.52 399.583L125.308 399.507C165.545 395.563 214.287 369.898 226.208 333.776V333.774ZM269.472 388.493C266.77 383.44 261.625 383.206 257.982 385.14C254.041 387.234 251.322 392.211 254.048 397.317C268.174 423.743 307.091 429.392 323.167 430.597L324.505 430.696L324.956 429.439C326.631 424.786 327.97 420.006 328.943 415.227L329.347 413.235L327.31 413.129C313.49 412.4 280.187 408.545 269.47 388.493H269.472ZM301.064 361.608C295.921 352.749 296.308 341.71 296.679 331.037C296.768 328.534 296.852 326.075 296.864 323.692C296.938 308.276 295.145 290.795 281.288 278.049C279.022 275.963 276.095 275.271 273.258 276.154C270.253 277.087 267.785 279.688 267.118 282.633C266.507 285.32 267.376 287.907 269.563 289.919C281.103 300.538 280.77 315.734 280.418 331.82C280.199 341.835 279.972 352.192 282.913 361.282C288.305 377.938 302.918 389.702 327.599 397.254L328.697 397.335L331.003 395.627V380.917L329.783 380.527C315.118 375.817 305.724 369.63 301.066 361.608H301.064ZM277.312 474.501C271.421 469.546 265.482 465.104 257.664 465.104H257.541C252.174 465.136 249.393 469.367 249.418 473.534C249.442 477.647 252.307 481.763 257.561 481.76C260.893 481.657 264.972 485.581 267.79 488.293L268.642 489.115L269.726 488.637C274.004 486.74 278.135 484.568 282.012 482.182L283.736 481.12L282.438 479.569C281.012 477.868 279.288 476.163 277.31 474.501H277.312ZM331 302.386V344.802L327.808 340.331C323.382 334.13 319.965 326.24 317.369 316.215C308.936 283.668 297.955 258.266 271.768 240.081C241.541 219.092 200.287 222.223 169.116 247.871C164.71 251.493 160.166 255.579 155.769 259.528C146.178 268.144 136.259 277.05 126.022 282.969L123.379 284.496V267.069L123.914 266.551C127.123 263.457 133.744 257.498 139.589 252.241C143.737 248.509 147.599 245.036 149.84 242.948C161.215 232.346 172.011 224.672 182.838 219.484C185.838 218.046 188.969 216.738 192.146 215.594C208.587 209.685 219.632 194.401 219.632 177.573V150.924C218.348 151.766 217.223 152.456 216.713 152.664C210.612 155.177 203.962 155.894 197.491 154.748C186.274 152.757 177.417 145.753 172.4 134.953C155.163 139.145 134.493 132.683 127.18 111.867C120.68 93.3561 129.833 73.6645 148.513 65.4899C147.015 54.5864 150.284 44.0485 157.594 36.3868C164.887 28.7472 175.299 24.9974 186.257 25.9741C194.917 9.75502 210.678 0.0711687 228.659 0H228.856C246.869 0 262.726 9.64703 271.517 25.898H271.792C282.47 25.898 292.266 30.1289 298.84 37.6286C305.305 45.0031 308.17 55.0011 306.798 65.2494C325.936 73.2056 335.338 93.0003 328.714 111.865C321.414 132.651 300.763 139.115 283.541 134.963C278.406 145.935 268.987 153.16 257.492 154.87C250.447 155.921 243.361 154.794 237.011 151.629C236.841 151.543 236.531 151.354 236.139 151.098V178.53C236.139 194.887 246.361 209.611 262.184 216.044C286.155 225.877 307.655 246.329 319.961 270.865C324.367 279.649 327.754 289.237 330.946 301.956L331 302.381V302.386ZM160.348 78.8352C151.193 80.9261 145.17 86.3988 143.392 94.2469C141.584 102.22 144.722 111.256 151.02 116.223C157.094 121.011 165.04 121.411 173.385 117.352C174.673 116.726 176.077 116.412 177.469 116.412C178.779 116.412 180.075 116.69 181.252 117.247C183.392 118.258 184.87 120.086 185.415 122.395C187.208 129.996 193.028 138.875 203.538 138.887H203.563C208.735 138.887 211.045 136.614 213.972 133.741C215.691 132.05 217.642 130.136 220.358 128.567L221.479 127.897C223.349 126.761 224.826 125.861 227.952 125.861C231.309 125.861 232.605 126.702 234.44 128.072C234.915 128.425 235.45 128.828 236.129 129.269C238.267 130.653 240.063 132.168 241.647 133.505C246.238 137.385 249.27 139.952 257.014 137.517C264.514 135.162 268.541 130.639 270.487 122.395C271.031 120.089 272.509 118.258 274.65 117.247C277.078 116.101 280.019 116.137 282.514 117.352C291.076 121.509 299.103 121.161 305.106 116.363C311.327 111.394 314.315 102.284 312.377 94.2077C311.258 89.5547 307.515 81.3605 294.992 78.7518C292.527 78.2389 290.63 76.818 289.652 74.7516C288.928 73.6228 288.155 71.446 289.15 68.5133C291.711 60.9474 290.874 54.0514 286.788 49.0966C282.495 43.889 275.182 41.5429 266.746 42.6349C262.913 43.1478 259.861 39.9477 258.615 36.7844C253.548 23.9323 242.174 16.0056 228.735 16.1406C215.245 16.2608 203.841 24.4305 198.976 37.4593C197.316 41.9061 193.159 44.2105 188.88 43.062C181.343 41.0496 174.355 42.7233 169.722 47.6634C164.804 52.9053 163.473 60.729 166.163 68.5968C166.833 70.5576 166.574 72.835 165.449 74.84C164.296 76.899 162.439 78.3542 160.353 78.8303L160.348 78.8352ZM256.521 428.273C254.007 426.781 251.482 425.284 248.942 423.802C248.154 423.343 247.319 423.022 246.396 422.825C233.57 415.888 219.095 416.045 202.146 423.301C197.76 425.179 193.476 427.088 189.24 428.975C173.442 436.016 158.52 442.664 141.439 446.336L138.995 446.858L140.318 448.974C142.924 453.143 145.857 457.161 149.032 460.913L149.722 461.728L150.764 461.494C162.227 458.932 172.754 455.543 182.944 451.128C186.858 449.43 190.782 447.376 194.939 445.202C209.834 437.398 225.243 429.331 239.994 438.343C240.799 438.836 241.642 439.177 242.566 439.383L246.26 441.55C264.177 452.081 281.1 462.027 300.815 466.167L301.773 466.368L302.448 465.664C306.007 461.951 309.313 457.946 312.273 453.752L313.978 451.335L311.032 450.998C290.987 448.728 274.246 438.792 256.524 428.268L256.521 428.273Z" fill="#A7D069"/>
</g>
<path d="M227.413 390.902C200.112 415.468 164.917 430.855 133.192 432.143L132.641 432.163L131.68 431.555L131.37 430.941C129.953 427.199 128.746 423.321 127.786 419.431L127.544 418.455L128.264 417.753C129.707 416.351 131.581 415.559 133.687 415.463C160.291 414.216 192.459 399.934 215.639 379.074C230.878 363.517 245.265 339.597 239.703 319.331C237.612 311.709 234.08 307.159 229.208 305.812C217.548 302.599 200.319 317.464 193.447 324.009C191.099 326.245 188.794 328.463 186.518 330.662C167.996 348.525 150.5 365.397 125.65 373.012L123.374 373.712V356.13L124.517 355.706C145.173 347.995 160.858 332.598 177.464 316.296L178.7 315.083C190.464 303.539 208.22 286.11 228.617 288.285C248.758 290.449 257.482 309.515 257.194 327.452C256.748 355.22 240.753 377.28 227.413 390.9V390.902ZM219.144 460.415C209.201 462.059 199.597 463.995 191.38 469.581C186.25 473.07 181.624 477.5 177.39 481.77L175.762 483.409L177.786 484.533C181.929 486.835 186.309 488.875 190.801 490.6L191.841 490.998L192.649 490.229C194.494 488.477 196.705 486.433 199.092 484.573C205.681 479.439 214.208 478.035 222.457 476.68L223.233 476.55C227.563 475.834 230.08 472.3 229.358 467.949C228.622 463.539 224.61 459.529 219.149 460.412L219.144 460.415ZM154.185 306.747C166.264 294.663 176.688 284.817 188.301 276.039C202.989 264.934 223.671 263.562 243.61 272.365C248.694 274.608 253.625 271.697 255.452 267.584C257.231 263.589 255.686 259.569 251.696 257.805C223.378 245.299 196.218 248.487 173.158 267.01C163.629 274.664 154.904 283.141 146.463 291.34C142.269 295.414 138.062 299.5 133.729 303.527C132.165 304.98 129.995 306.384 127.897 307.746C126.53 308.629 125.205 309.488 124.079 310.335L123.377 310.862V330.12L126.094 328.367C135.138 322.527 145.547 315.393 154.185 306.749V306.747ZM226.208 333.774C227.132 330.974 226.637 328.311 224.812 326.279C222.802 324.043 219.368 322.981 216.282 323.611C213.344 324.225 211.107 326.254 210.139 329.182C200.252 359.144 158.247 380.495 124.998 383.096L123.374 383.224V394.746L123.451 395.531L123.483 395.565C122.51 397.182 123.175 398.343 123.939 399.048L124.52 399.583L125.308 399.507C165.545 395.563 214.287 369.898 226.208 333.776V333.774ZM269.472 388.493C266.77 383.44 261.625 383.206 257.982 385.14C254.041 387.234 251.322 392.211 254.048 397.317C268.174 423.743 307.091 429.392 323.167 430.597L324.505 430.696L324.956 429.439C326.631 424.786 327.97 420.006 328.943 415.227L329.347 413.235L327.31 413.129C313.49 412.4 280.187 408.545 269.47 388.493H269.472ZM301.064 361.608C295.921 352.749 296.308 341.71 296.679 331.037C296.768 328.534 296.852 326.075 296.864 323.692C296.938 308.276 295.145 290.795 281.288 278.049C279.022 275.963 276.095 275.271 273.258 276.154C270.253 277.087 267.785 279.688 267.118 282.633C266.507 285.32 267.376 287.907 269.563 289.919C281.103 300.538 280.77 315.734 280.418 331.82C280.199 341.835 279.972 352.192 282.913 361.282C288.305 377.938 302.918 389.702 327.599 397.254L328.697 397.335L331.003 395.627V380.917L329.783 380.527C315.118 375.817 305.724 369.63 301.066 361.608H301.064ZM277.312 474.501C271.421 469.546 265.482 465.104 257.664 465.104H257.541C252.174 465.136 249.393 469.367 249.418 473.534C249.442 477.647 252.307 481.763 257.561 481.76C260.893 481.657 264.972 485.581 267.79 488.293L268.642 489.115L269.726 488.637C274.004 486.74 278.135 484.568 282.012 482.182L283.736 481.12L282.438 479.569C281.012 477.868 279.288 476.163 277.31 474.501H277.312ZM331 302.386V344.802L327.808 340.331C323.382 334.13 319.965 326.24 317.369 316.215C308.936 283.668 297.955 258.266 271.768 240.081C241.541 219.092 200.287 222.223 169.116 247.871C164.71 251.493 160.166 255.579 155.769 259.528C146.178 268.144 136.259 277.05 126.022 282.969L123.379 284.496V267.069L123.914 266.551C127.123 263.457 133.744 257.498 139.589 252.241C143.737 248.509 147.599 245.036 149.84 242.948C161.215 232.346 172.011 224.672 182.838 219.484C185.838 218.046 188.969 216.738 192.146 215.594C208.587 209.685 219.632 194.401 219.632 177.573V150.924C218.348 151.766 217.223 152.456 216.713 152.664C210.612 155.177 203.962 155.894 197.491 154.748C186.274 152.757 177.417 145.753 172.4 134.953C155.163 139.145 134.493 132.683 127.18 111.867C120.68 93.3561 129.833 73.6645 148.513 65.4899C147.015 54.5864 150.284 44.0485 157.594 36.3868C164.887 28.7472 175.299 24.9974 186.257 25.9741C194.917 9.75502 210.678 0.0711687 228.659 0H228.856C246.869 0 262.726 9.64703 271.517 25.898H271.792C282.47 25.898 292.266 30.1289 298.84 37.6286C305.305 45.0031 308.17 55.0011 306.798 65.2494C325.936 73.2056 335.338 93.0003 328.714 111.865C321.414 132.651 300.763 139.115 283.541 134.963C278.406 145.935 268.987 153.16 257.492 154.87C250.447 155.921 243.361 154.794 237.011 151.629C236.841 151.543 236.531 151.354 236.139 151.098V178.53C236.139 194.887 246.361 209.611 262.184 216.044C286.155 225.877 307.655 246.329 319.961 270.865C324.367 279.649 327.754 289.237 330.946 301.956L331 302.381V302.386ZM160.348 78.8352C151.193 80.9261 145.17 86.3988 143.392 94.2469C141.584 102.22 144.722 111.256 151.02 116.223C157.094 121.011 165.04 121.411 173.385 117.352C174.673 116.726 176.077 116.412 177.469 116.412C178.779 116.412 180.075 116.69 181.252 117.247C183.392 118.258 184.87 120.086 185.415 122.395C187.208 129.996 193.028 138.875 203.538 138.887H203.563C208.735 138.887 211.045 136.614 213.972 133.741C215.691 132.05 217.642 130.136 220.358 128.567L221.479 127.897C223.349 126.761 224.826 125.861 227.952 125.861C231.309 125.861 232.605 126.702 234.44 128.072C234.915 128.425 235.45 128.828 236.129 129.269C238.267 130.653 240.063 132.168 241.647 133.505C246.238 137.385 249.27 139.952 257.014 137.517C264.514 135.162 268.541 130.639 270.487 122.395C271.031 120.089 272.509 118.258 274.65 117.247C277.078 116.101 280.019 116.137 282.514 117.352C291.076 121.509 299.103 121.161 305.106 116.363C311.327 111.394 314.315 102.284 312.377 94.2077C311.258 89.5547 307.515 81.3605 294.992 78.7518C292.527 78.2389 290.63 76.818 289.652 74.7516C288.928 73.6228 288.155 71.446 289.15 68.5133C291.711 60.9474 290.874 54.0514 286.788 49.0966C282.495 43.889 275.182 41.5429 266.746 42.6349C262.913 43.1478 259.861 39.9477 258.615 36.7844C253.548 23.9323 242.174 16.0056 228.735 16.1406C215.245 16.2608 203.841 24.4305 198.976 37.4593C197.316 41.9061 193.159 44.2105 188.88 43.062C181.343 41.0496 174.355 42.7233 169.722 47.6634C164.804 52.9053 163.473 60.729 166.163 68.5968C166.833 70.5576 166.574 72.835 165.449 74.84C164.296 76.899 162.439 78.3542 160.353 78.8303L160.348 78.8352ZM256.521 428.273C254.007 426.781 251.482 425.284 248.942 423.802C248.154 423.343 247.319 423.022 246.396 422.825C233.57 415.888 219.095 416.045 202.146 423.301C197.76 425.179 193.476 427.088 189.24 428.975C173.442 436.016 158.52 442.664 141.439 446.336L138.995 446.858L140.318 448.974C142.924 453.143 145.857 457.161 149.032 460.913L149.722 461.728L150.764 461.494C162.227 458.932 172.754 455.543 182.944 451.128C186.858 449.43 190.782 447.376 194.939 445.202C209.834 437.398 225.243 429.331 239.994 438.343C240.799 438.836 241.642 439.177 242.566 439.383L246.26 441.55C264.177 452.081 281.1 462.027 300.815 466.167L301.773 466.368L302.448 465.664C306.007 461.951 309.313 457.946 312.273 453.752L313.978 451.335L311.032 450.998C290.987 448.728 274.246 438.792 256.524 428.268L256.521 428.273Z" stroke="#8E9C63" stroke-width="2" mask="url(#path-1-inside-1_72_1339)"/>
</g>
<defs>
<filter id="filter0_i_72_1339" x="122.997" y="0" width="209.005" height="494.998" filterUnits="userSpaceOnUse" color-interpolation-filters="sRGB">
<feFlood flood-opacity="0" result="BackgroundImageFix"/>
<feBlend mode="normal" in="SourceGraphic" in2="BackgroundImageFix" result="shape"/>
<feColorMatrix in="SourceAlpha" type="matrix" values="0 0 0 0 0 0 0 0 0 0 0 0 0 0 0 0 0 0 127 0" result="hardAlpha"/>
<feOffset dx="1" dy="4"/>
<feGaussianBlur stdDeviation="2"/>
<feComposite in2="hardAlpha" operator="arithmetic" k2="-1" k3="1"/>
<feColorMatrix type="matrix" values="0 0 0 0 0 0 0 0 0 0 0 0 0 0 0 0 0 0 0.55 0"/>
<feBlend mode="normal" in2="shape" result="effect1_innerShadow_72_1339"/>
</filter>
<clipPath id="clip0_72_1339">
<rect width="208" height="491" fill="white" transform="translate(123)"/>
</clipPath>
</defs>
</svg>
