<svg width="1000" height="1000" viewBox="0 0 1000 1000" fill="none" xmlns="http://www.w3.org/2000/svg">
<rect width="1000" height="1000" rx="300" fill="#101108"/>
<path d="M788.686 353.363C718.607 354.997 558.464 372.64 490.914 495.174C429.037 607.417 420.768 707.248 421.266 756.33C421.455 774.93 436.407 788.514 454.32 788.565L786.009 789.507C806.15 789.564 822.507 772.625 822.507 751.71V389.052C822.507 369.204 807.795 352.917 788.686 353.363Z" fill="#FAFAFA"/>
<path d="M177 388.375V750.591C177 770.959 193.092 787.47 212.941 787.47H350.654C372.593 787.47 389.942 767.434 389.658 744.925C389.301 716.707 396.929 673.884 398.784 630.736C400.196 597.914 393.611 581.312 387.658 559.118C375.547 513.97 353.54 464.827 314.729 436.983C272.949 407.009 236.142 395.209 210.299 390.762C197.34 388.532 187.063 388.139 180.221 388.268C179.044 388.291 177.969 388.329 177 388.375Z" fill="#FAFAFA"/>
<path d="M177 346.331C177 348.909 179.061 350.982 181.573 350.996C190.62 351.05 203.439 351.726 216.482 353.97C247.426 359.296 289.511 373.126 336.147 406.584C369.482 430.499 391.74 465.363 406.66 500.219C413.677 516.61 437.778 518.25 445.042 501.973L446.201 499.376C506.122 383.8 473.68 232.21 458.443 176.591C455.35 165.304 442.774 160.692 433.027 166.811L194.185 316.735C183.51 323.436 177 333.49 177 346.331Z" fill="#FAFAFA"/>
<path d="M535.291 146.748L768.543 293.007C784.071 302.744 777.305 328.406 759.136 329.453C721.445 331.625 675.26 336.226 643.879 345.961C609.288 356.691 573.786 372.866 549.356 384.957C536.162 391.488 520.107 380.427 520.9 365.418C522.263 339.608 522.953 302.554 519.522 263.353C516.323 226.811 511.432 191.949 507.36 166.321C504.835 150.428 521.9 138.351 535.291 146.748Z" fill="#FAFAFA"/>
</svg>
