<svg width="64" height="64" viewBox="0 0 64 64" fill="none" xmlns="http://www.w3.org/2000/svg">
<path d="M60.6468 20.7577C53.6988 20.9197 37.821 22.669 31.1237 34.8178C24.9888 45.9464 24.1689 55.8443 24.2183 60.7106C24.237 62.5548 25.7194 63.9016 27.4955 63.9066L60.3814 64C62.3784 64.0057 64.0001 62.3263 64.0001 60.2526V24.2962C64.0001 22.3283 62.5414 20.7135 60.6468 20.7577Z" fill="#FAFAFA"/>
<path d="M0 24.2291V60.1417C0 62.1611 1.59542 63.7981 3.56348 63.7981H17.2173C19.3925 63.7981 21.1126 61.8116 21.0844 59.5799C21.049 56.7822 21.8053 52.5364 21.9892 48.2584C22.1292 45.0043 21.4764 43.3582 20.8861 41.1577C19.6853 36.6814 17.5034 31.809 13.6554 29.0484C9.51301 26.0766 5.86377 24.9067 3.30151 24.4657C2.01663 24.2446 0.997712 24.2056 0.319389 24.2185C0.202687 24.2207 0.0960959 24.2245 0 24.2291Z" fill="#FAFAFA"/>
<path d="M0 20.0604C2.53233e-07 20.316 0.204336 20.5216 0.453428 20.523C1.35039 20.5283 2.62133 20.5953 3.91453 20.8179C6.98257 21.3459 11.1552 22.7172 15.779 26.0343C19.084 28.4055 21.2909 31.8622 22.7701 35.318C23.4658 36.9431 25.8554 37.1057 26.5756 35.4919L26.6905 35.2344C32.6314 23.7754 29.4149 8.74576 27.9042 3.23131C27.5976 2.11222 26.3507 1.65498 25.3842 2.26162L1.70386 17.1261C0.64542 17.7905 0 18.7873 0 20.0604Z" fill="#FAFAFA"/>
<path d="M35.5236 0.272477L58.6498 14.7736C60.1894 15.739 59.5186 18.2833 57.7171 18.3871C53.9802 18.6025 49.4011 19.0586 46.2898 20.0238C42.8602 21.0877 39.3403 22.6913 36.9181 23.8902C35.61 24.5377 34.0182 23.441 34.0968 21.9529C34.2319 19.3939 34.3004 15.7201 33.9601 11.8335C33.643 8.2105 33.158 4.754 32.7544 2.21309C32.504 0.637336 34.1959 -0.560047 35.5236 0.272477Z" fill="#FAFAFA"/>
</svg>
